<svg width="46" height="37" viewBox="0 0 46 37" fill="none" xmlns="http://www.w3.org/2000/svg">
<path fill-rule="evenodd" clip-rule="evenodd" d="M38.6071 3.36364C40.8755 3.36364 42.7143 5.24608 42.7143 7.56818V29.4318C42.7143 31.7539 40.8755 33.6364 38.6071 33.6364H7.39286C5.12454 33.6364 3.28571 31.7539 3.28571 29.4318V7.56818C3.28571 5.24608 5.12454 3.36364 7.39286 3.36364H38.6071ZM46 7.56818C46 3.38839 42.6901 0 38.6071 0H7.39286C3.30989 0 -1.43051e-06 3.38839 -1.43051e-06 7.56818V29.4318C-1.43051e-06 33.6116 3.30989 37 7.39286 37H38.6071C42.6901 37 46 33.6116 46 29.4318V7.56818Z" fill="white"/>
<path fill-rule="evenodd" clip-rule="evenodd" d="M1.64286 14.9261H44.3571V8.61932H1.64286V14.9261Z" fill="white"/>
<path fill-rule="evenodd" clip-rule="evenodd" d="M39.2232 23.125C39.2232 21.3834 37.8441 19.9716 36.1429 19.9716H31.2143C29.5131 19.9716 28.1339 21.3834 28.1339 23.125V25.2273C28.1339 26.9689 29.5131 28.3807 31.2143 28.3807H36.1429C37.8441 28.3807 39.2232 26.9689 39.2232 25.2273V23.125Z" fill="white"/>
</svg>
