<svg width="20" height="15" viewBox="0 0 20 15" fill="none" xmlns="http://www.w3.org/2000/svg">
<path fill-rule="evenodd" clip-rule="evenodd" d="M20 10C20 10.6904 19.403 11.25 18.6667 11.25H1.33333C0.596953 11.25 0 10.6904 0 10V1.25C0 0.559643 0.596953 0 1.33333 0L18.6667 0C19.403 0 20 0.559643 20 1.25V10ZM1.33333 10H18.6667V1.25H1.33333V10Z" fill="#E6E6E6"/>
<path fill-rule="evenodd" clip-rule="evenodd" d="M1.33333 12.5C1.33333 12.1548 1.63181 11.875 2 11.875H18C18.3682 11.875 18.6667 12.1548 18.6667 12.5C18.6667 12.8452 18.3682 13.125 18 13.125H2C1.63181 13.125 1.33333 12.8452 1.33333 12.5Z" fill="#E6E6E6"/>
<path fill-rule="evenodd" clip-rule="evenodd" d="M2.66667 14.375C2.66667 14.0298 2.96514 13.75 3.33333 13.75H16.6667C17.0349 13.75 17.3333 14.0298 17.3333 14.375C17.3333 14.7202 17.0349 15 16.6667 15H3.33333C2.96514 15 2.66667 14.7202 2.66667 14.375Z" fill="#E6E6E6"/>
<path fill-rule="evenodd" clip-rule="evenodd" d="M10 3.125C8.52724 3.125 7.33333 4.24429 7.33333 5.625C7.33333 7.00571 8.52724 8.125 10 8.125C11.4728 8.125 12.6667 7.00571 12.6667 5.625C12.6667 4.24429 11.4728 3.125 10 3.125ZM6 5.625C6 3.55393 7.79086 1.875 10 1.875C12.2091 1.875 14 3.55393 14 5.625C14 7.69607 12.2091 9.375 10 9.375C7.79086 9.375 6 7.69607 6 5.625Z" fill="#E6E6E6"/>
<path fill-rule="evenodd" clip-rule="evenodd" d="M16 0C16.3682 0 16.6667 0.279822 16.6667 0.625C16.6667 1.28804 16.9476 1.92393 17.4477 2.39277C17.9478 2.86161 18.6261 3.125 19.3333 3.125C19.7015 3.125 20 3.40482 20 3.75C20 4.09518 19.7015 4.375 19.3333 4.375C18.2725 4.375 17.2551 3.97991 16.5049 3.27665C15.7548 2.57339 15.3333 1.61956 15.3333 0.625C15.3333 0.279822 15.6318 0 16 0Z" fill="#E6E6E6"/>
<path fill-rule="evenodd" clip-rule="evenodd" d="M4 0C4.36819 0 4.66667 0.279822 4.66667 0.625C4.66667 1.11746 4.5632 1.60509 4.36218 2.06006C4.16117 2.51503 3.86653 2.92843 3.49509 3.27665C3.12366 3.62487 2.6827 3.90109 2.1974 4.08955C1.7121 4.278 1.19195 4.375 0.666667 4.375C0.298477 4.375 0 4.09518 0 3.75C0 3.40482 0.298477 3.125 0.666667 3.125C1.01686 3.125 1.36362 3.06034 1.68716 2.9347C2.01069 2.80906 2.30466 2.62491 2.55228 2.39277C2.79991 2.16062 2.99633 1.88502 3.13035 1.58171C3.26436 1.27839 3.33333 0.953305 3.33333 0.625C3.33333 0.279822 3.63181 0 4 0Z" fill="#E6E6E6"/>
<path fill-rule="evenodd" clip-rule="evenodd" d="M16.5049 7.97335C17.2551 7.27009 18.2725 6.875 19.3333 6.875C19.7015 6.875 20 7.15482 20 7.5C20 7.84518 19.7015 8.125 19.3333 8.125C18.6261 8.125 17.9478 8.38839 17.4477 8.85723C16.9476 9.32607 16.6667 9.96196 16.6667 10.625C16.6667 10.9702 16.3682 11.25 16 11.25C15.6318 11.25 15.3333 10.9702 15.3333 10.625C15.3333 9.63044 15.7548 8.67661 16.5049 7.97335Z" fill="#E6E6E6"/>
<path fill-rule="evenodd" clip-rule="evenodd" d="M0 7.5C0 7.15482 0.298477 6.875 0.666667 6.875C1.19195 6.875 1.7121 6.972 2.1974 7.16045C2.6827 7.34891 3.12366 7.62513 3.49509 7.97335C3.86653 8.32157 4.16117 8.73497 4.36218 9.18994C4.5632 9.64491 4.66667 10.1325 4.66667 10.625C4.66667 10.9702 4.36819 11.25 4 11.25C3.63181 11.25 3.33333 10.9702 3.33333 10.625C3.33333 10.2967 3.26436 9.9716 3.13035 9.66829C2.99633 9.36498 2.79991 9.08938 2.55228 8.85723C2.30466 8.62509 2.01069 8.44094 1.68716 8.3153C1.36362 8.18966 1.01686 8.125 0.666667 8.125C0.298477 8.125 0 7.84518 0 7.5Z" fill="#E6E6E6"/>
</svg>
