<svg width="16" height="14" viewBox="0 0 16 14" fill="none" xmlns="http://www.w3.org/2000/svg">
<path d="M14.5125 8.38755L8.86562 13.6594C8.63125 13.8782 8.32188 14 8 14C7.67812 14 7.36875 13.8782 7.13437 13.6594L1.4875 8.38755C0.5375 7.50317 0 6.26255 0 4.96567V4.78442C0 2.60005 1.57812 0.737545 3.73125 0.37817C5.15625 0.14067 6.60625 0.606295 7.625 1.62505L8 2.00005L8.375 1.62505C9.39375 0.606295 10.8438 0.14067 12.2687 0.37817C14.4219 0.737545 16 2.60005 16 4.78442V4.96567C16 6.26255 15.4625 7.50317 14.5125 8.38755Z" fill="white"/>
</svg>
