<svg width="24" height="24" viewBox="0 0 24 24" fill="none" xmlns="http://www.w3.org/2000/svg">
<path fill-rule="evenodd" clip-rule="evenodd" d="M0 12C0 5.37321 5.37321 0 12 0C18.6268 0 24 5.37321 24 12C24 18.6268 18.6268 24 12 24C5.37321 24 0 18.6268 0 12ZM12 1.92C6.43359 1.92 1.92 6.43359 1.92 12C1.92 17.5664 6.43359 22.08 12 22.08C17.5664 22.08 22.08 17.5664 22.08 12C22.08 6.43359 17.5664 1.92 12 1.92Z" fill="#FF9900"/>
<path fill-rule="evenodd" clip-rule="evenodd" d="M9.36 10.32C9.36 9.78981 9.78981 9.36 10.32 9.36H12.24C12.7702 9.36 13.2 9.78981 13.2 10.32V17.28C13.2 17.8102 12.7702 18.24 12.24 18.24C11.7098 18.24 11.28 17.8102 11.28 17.28V11.28H10.32C9.78981 11.28 9.36 10.8502 9.36 10.32Z" fill="#FF9900"/>
<path fill-rule="evenodd" clip-rule="evenodd" d="M8.64 17.52C8.64 16.9898 9.06981 16.56 9.6 16.56H14.88C15.4102 16.56 15.84 16.9898 15.84 17.52C15.84 18.0502 15.4102 18.48 14.88 18.48H9.6C9.06981 18.48 8.64 18.0502 8.64 17.52Z" fill="#FF9900"/>
<path d="M12 4.92C11.6915 4.92 11.3899 5.01149 11.1333 5.18291C10.8768 5.35432 10.6768 5.59796 10.5587 5.88301C10.4407 6.16807 10.4098 6.48173 10.47 6.78434C10.5302 7.08695 10.6787 7.36492 10.8969 7.58309C11.1151 7.80126 11.393 7.94983 11.6957 8.01002C11.9983 8.07022 12.3119 8.03932 12.597 7.92125C12.882 7.80318 13.1257 7.60323 13.2971 7.34669C13.4685 7.09015 13.56 6.78854 13.56 6.48C13.56 6.06626 13.3956 5.66947 13.1031 5.37691C12.8105 5.08436 12.4137 4.92 12 4.92Z" fill="#FF9900"/>
</svg>
