<svg width="46" height="46" viewBox="0 0 46 46" fill="none" xmlns="http://www.w3.org/2000/svg">
<path d="M0 23C0 10.2975 10.2975 0 23 0C35.7025 0 46 10.2975 46 23C46 35.7025 35.7025 46 23 46C10.2975 46 0 35.7025 0 23Z" fill="#323232"/>
<path fill-rule="evenodd" clip-rule="evenodd" d="M19.625 31.3333C19.2603 31.3333 18.9106 31.1885 18.6527 30.9306C18.3949 30.6727 18.25 30.323 18.25 29.9583V27.6667C18.25 27.1604 17.8396 26.75 17.3333 26.75C16.8271 26.75 16.4167 27.1604 16.4167 27.6667V29.9583C16.4167 30.8092 16.7547 31.6253 17.3564 32.227C17.958 32.8287 18.7741 33.1667 19.625 33.1667H28.7917C29.6426 33.1667 30.4586 32.8287 31.0603 32.227C31.662 31.6253 32 30.8092 32 29.9583V16.2083C32 15.3574 31.662 14.5414 31.0603 13.9397C30.4586 13.338 29.6426 13 28.7917 13H20.0833C19.2226 13 18.3399 13.3402 17.6684 13.8664C17.0003 14.3898 16.4167 15.2029 16.4167 16.2083V18.5C16.4167 19.0063 16.8271 19.4167 17.3333 19.4167C17.8396 19.4167 18.25 19.0063 18.25 18.5V16.2083C18.25 15.9482 18.4085 15.6155 18.7991 15.3095C19.1861 15.0062 19.6785 14.8333 20.0833 14.8333H28.7917C29.1563 14.8333 29.5061 14.9782 29.7639 15.2361C30.0218 15.4939 30.1667 15.8437 30.1667 16.2083V29.9583C30.1667 30.323 30.0218 30.6727 29.7639 30.9306C29.5061 31.1885 29.1563 31.3333 28.7917 31.3333H19.625Z" fill="#E6E6E6"/>
<path fill-rule="evenodd" clip-rule="evenodd" d="M22.1852 28.3149C22.5431 28.6728 23.1235 28.6728 23.4815 28.3149L28.0648 23.7315C28.4228 23.3735 28.4228 22.7931 28.0648 22.4352L23.4815 17.8518C23.1235 17.4938 22.5431 17.4938 22.1852 17.8518C21.8272 18.2098 21.8272 18.7902 22.1852 19.1482L25.2036 22.1667H10.9167C10.4104 22.1667 10 22.5771 10 23.0833C10 23.5896 10.4104 24 10.9167 24H25.2036L22.1852 27.0185C21.8272 27.3765 21.8272 27.9569 22.1852 28.3149Z" fill="#E6E6E6"/>
</svg>
