<svg width="26" height="24" viewBox="0 0 26 24" fill="none" xmlns="http://www.w3.org/2000/svg">
<path fill-rule="evenodd" clip-rule="evenodd" d="M3.48669 8.86487C3.96434 8.86487 4.35154 9.24662 4.35154 9.71755V22.2946H8.67577V15.8995C8.67577 15.3341 8.90356 14.7919 9.30904 14.3922C9.71451 13.9924 10.2645 13.7678 10.8379 13.7678H15.1621C15.7355 13.7678 16.2855 13.9924 16.691 14.3922C17.0964 14.7919 17.3242 15.3341 17.3242 15.8995V22.2946H21.6485V9.71755C21.6485 9.24662 22.0357 8.86487 22.5133 8.86487C22.9909 8.86487 23.3781 9.24662 23.3781 9.71755V22.2946C23.3781 22.7469 23.1959 23.1807 22.8715 23.5005C22.5472 23.8203 22.1072 24 21.6485 24H16.4594C15.9817 24 15.5945 23.6182 15.5945 23.1473V15.8995C15.5945 15.7864 15.549 15.678 15.4679 15.598C15.3868 15.5181 15.2768 15.4732 15.1621 15.4732H10.8379C10.7232 15.4732 10.6132 15.5181 10.5321 15.598C10.451 15.678 10.4055 15.7864 10.4055 15.8995V23.1473C10.4055 23.6182 10.0183 24 9.54062 24H4.35154C3.8928 24 3.45284 23.8203 3.12846 23.5005C2.80408 23.1807 2.62185 22.7469 2.62185 22.2946V9.71755C2.62185 9.24662 3.00905 8.86487 3.48669 8.86487Z" fill="#A0A0A0"/>
<path fill-rule="evenodd" clip-rule="evenodd" d="M14.201 0.458901L25.7326 11.2919C26.0784 11.6167 26.0904 12.1551 25.7594 12.4944C25.4284 12.8337 24.8798 12.8454 24.534 12.5206L13.0174 1.70177C13.0121 1.70131 13.0063 1.70104 13.0003 1.70102C12.994 1.70101 12.9881 1.70129 12.9827 1.70175L1.46597 12.5206C1.1202 12.8454 0.57159 12.8337 0.240607 12.4944C-0.0903765 12.1551 -0.0783944 11.6167 0.26737 11.2919L11.7998 0.458201C12.1533 0.106465 12.6351 -0.000644958 13.0034 2.91772e-06C13.3702 0.000648208 13.8502 0.108637 14.201 0.458901Z" fill="#A0A0A0"/>
<path fill-rule="evenodd" clip-rule="evenodd" d="M17.479 1.6275C17.479 1.1466 17.8703 0.756757 18.3529 0.756757H20.9748C21.4575 0.756757 21.8487 1.1466 21.8487 1.6275V7.88601C21.8487 8.36691 21.4575 8.75676 20.9748 8.75676C20.4921 8.75676 20.1008 8.36691 20.1008 7.88601V2.49825H19.2269V5.38261C19.2269 5.86351 18.8356 6.25336 18.3529 6.25336C17.8703 6.25336 17.479 5.86351 17.479 5.38261V1.6275Z" fill="#A0A0A0"/>
</svg>
