<svg width="21" height="23" viewBox="0 0 21 23" fill="none" xmlns="http://www.w3.org/2000/svg">
<g clip-path="url(#clip0_19_130)">
<path d="M10.4998 11.5C7.83103 11.5 5.47678 8.94741 5.25216 5.80955C5.13858 4.21906 5.62165 2.74665 6.61251 1.66237C7.59328 0.590402 8.97333 0 10.4998 0C12.0262 0 13.3936 0.593996 14.3784 1.67263C15.3758 2.76513 15.8619 4.23446 15.7469 5.81058C15.5182 8.94792 13.1644 11.5 10.4998 11.5ZM10.4998 1.64286C9.42712 1.64286 8.46704 2.04741 7.7957 2.78156C7.11375 3.52752 6.78262 4.56047 6.86339 5.69045C7.02491 7.94886 8.69015 9.85714 10.4998 9.85714C12.3094 9.85714 13.9716 7.94835 14.1361 5.68942C14.2174 4.57433 13.8832 3.54498 13.1947 2.7908C12.5188 2.05049 11.5618 1.64286 10.4998 1.64286Z" fill="#A0A0A0"/>
<path d="M19.3838 23H1.6158C1.13072 23 0.697116 22.7972 0.394254 22.4286C0.0661523 22.0292 -0.0660977 21.4845 0.0313231 20.9341C0.45735 18.5304 1.78742 16.5112 3.87718 15.0943C5.73322 13.8359 8.08545 13.1429 10.4993 13.1429C12.9131 13.1429 15.2653 13.8359 17.1214 15.0943C19.2111 16.5112 20.5412 18.5304 20.9677 20.9341C21.0651 21.4845 20.9334 22.0292 20.6053 22.4286C20.3024 22.7972 19.8688 23 19.3838 23ZM1.6259 21.3572H19.3747C19.3827 21.3335 19.3903 21.2884 19.3792 21.2257C19.0324 19.2723 17.9421 17.6248 16.2264 16.4614C14.6323 15.3807 12.5986 14.7857 10.5003 14.7857C8.40195 14.7857 6.36772 15.3807 4.77415 16.4614C3.05844 17.6248 1.96813 19.2723 1.62186 21.2257C1.61075 21.2884 1.61832 21.333 1.6259 21.3572Z" fill="#A0A0A0"/>
</g>
<defs>
<clipPath id="clip0_19_130">
<rect width="21" height="23" fill="white"/>
</clipPath>
</defs>
</svg>
