<svg width="19" height="19" viewBox="0 0 19 19" fill="none" xmlns="http://www.w3.org/2000/svg">
<path fill-rule="evenodd" clip-rule="evenodd" d="M11.3394 0.230469C11.487 0.0828987 11.6872 0 11.896 0C12.1047 0 12.3049 0.0828987 12.4526 0.230469L14.1975 1.9774C14.198 1.97792 14.1986 1.97843 14.1991 1.97895C14.3391 2.11848 14.4214 2.30562 14.4297 2.50314C14.438 2.70139 14.371 2.89546 14.2422 3.04643L14.2417 3.04709L14.2411 3.04775C14.0418 3.28016 13.9375 3.57927 13.9492 3.88524C13.9608 4.19104 14.0875 4.48116 14.3037 4.69767C14.5205 4.91347 14.8108 5.03956 15.1165 5.05075C15.4225 5.06194 15.7214 4.95722 15.9535 4.75754L15.9545 4.75666L15.9556 4.75578C16.1065 4.62702 16.3006 4.56006 16.4988 4.56836C16.6965 4.57662 16.8837 4.65905 17.0233 4.79918C17.0237 4.79962 17.0241 4.80006 17.0246 4.80049L18.7695 6.54544C18.9171 6.69307 19 6.89327 19 7.10203C19 7.31078 18.9171 7.51098 18.7695 7.65861L15.9852 10.443C15.8131 10.6151 15.6032 10.7448 15.3724 10.8219C15.3278 10.8368 15.2873 10.862 15.2541 10.8953C15.2208 10.9286 15.1958 10.9693 15.181 11.014L15.1808 11.0146L15.1806 11.0152C15.1036 11.2462 14.974 11.4562 14.802 11.6285L7.66059 18.7695C7.51296 18.9171 7.31276 19 7.10401 19C6.89525 19 6.69505 18.9171 6.54742 18.7695L4.80247 17.0246C4.80204 17.0241 4.8016 17.0237 4.80116 17.0233C4.66103 16.8837 4.5786 16.6965 4.57033 16.4988C4.56204 16.3006 4.62899 16.1065 4.75776 15.9556L4.75846 15.9547L4.75916 15.9539C4.95869 15.7216 5.06311 15.4224 5.05151 15.1164C5.0399 14.8104 4.91313 14.52 4.69657 14.3034C4.48001 14.0869 4.18964 13.9601 3.8836 13.9485C3.57755 13.9369 3.27842 14.0413 3.04608 14.2408L3.04526 14.2415L3.04445 14.2422C2.89348 14.371 2.69941 14.438 2.50116 14.4297C2.30371 14.4214 2.11663 14.3391 1.97712 14.1992C1.97655 14.1987 1.97599 14.1981 1.97542 14.1975L0.230469 12.4526C0.0828987 12.3049 0 12.1047 0 11.896C0 11.6872 0.0828987 11.487 0.230469 11.3394L7.37148 4.19998C7.54362 4.02817 7.75329 3.89866 7.98398 3.82165M11.8958 1.46542L9.45061 3.91061C9.4175 3.94371 9.39255 3.98406 9.37774 4.02847C9.30104 4.25965 9.1716 4.46982 8.99965 4.64234C8.82746 4.8151 8.61739 4.94537 8.38609 5.0228L8.38525 5.02308C8.34049 5.03799 8.2998 5.0631 8.26639 5.09641L1.46527 11.896L2.58784 13.0186C2.99216 12.7829 3.45782 12.6648 3.93159 12.6827C4.55675 12.7064 5.14987 12.9654 5.59224 13.4078C6.03461 13.8501 6.29356 14.4433 6.31727 15.0684C6.33524 15.5422 6.21708 16.0078 5.9814 16.4122L7.10402 17.5348L13.9055 10.7337C13.9387 10.7004 13.9637 10.6599 13.9787 10.6154C14.0554 10.384 14.1849 10.1737 14.3569 10.0011C14.5291 9.82833 14.7392 9.69807 14.9705 9.62064L14.9714 9.62033C15.0159 9.60552 15.0563 9.58055 15.0894 9.54741L17.5348 7.10203L16.4124 5.97964C16.0086 6.21538 15.5435 6.33389 15.0702 6.31657C14.4453 6.29371 13.8521 6.03582 13.4091 5.59445L13.4087 5.59401L13.4083 5.59357C12.9661 5.15131 12.7073 4.55844 12.6834 3.93354C12.6653 3.45981 12.7833 2.99414 13.0189 2.58977L11.8958 1.46542ZM8.55499 3.01488C8.3827 3.18714 8.25292 3.39718 8.17592 3.62833L8.17574 3.62887L8.17556 3.62942C8.16076 3.67414 8.13573 3.7148 8.10248 3.74816C8.06923 3.78152 8.02864 3.80669 7.98398 3.82165" fill="#E6E6E6"/>
<path fill-rule="evenodd" clip-rule="evenodd" d="M8.18093 3.82436C8.42826 3.57703 8.82927 3.57703 9.0766 3.82436L9.73013 4.47789C9.97746 4.72522 9.97746 5.12623 9.73013 5.37356C9.48279 5.6209 9.08179 5.62089 8.83445 5.37356L8.18093 4.72004C7.9336 4.4727 7.9336 4.0717 8.18093 3.82436Z" fill="#E6E6E6"/>
<path fill-rule="evenodd" clip-rule="evenodd" d="M10.1409 5.78514C10.3881 5.5377 10.7891 5.53751 11.0366 5.78473L11.4724 6.22015C11.7198 6.46737 11.72 6.86838 11.4728 7.11583C11.2256 7.36327 10.8246 7.36345 10.5771 7.11623L10.1413 6.68081C9.89386 6.43359 9.89368 6.03259 10.1409 5.78514Z" fill="#E6E6E6"/>
<path fill-rule="evenodd" clip-rule="evenodd" d="M11.8842 7.5272C12.1316 7.27998 12.5326 7.28016 12.7798 7.52761L13.2153 7.96342C13.4625 8.21087 13.4623 8.61188 13.2149 8.8591C12.9674 9.10632 12.5664 9.10613 12.3192 8.85869L11.8838 8.42287C11.6365 8.17543 11.6367 7.77442 11.8842 7.5272Z" fill="#E6E6E6"/>
<path fill-rule="evenodd" clip-rule="evenodd" d="M13.6264 9.26987C13.8738 9.02254 14.2748 9.02254 14.5221 9.26987L15.1756 9.9234C15.423 10.1707 15.423 10.5717 15.1756 10.8191C14.9283 11.0664 14.5273 11.0664 14.28 10.8191L13.6264 10.1655C13.3791 9.91821 13.3791 9.51721 13.6264 9.26987Z" fill="#E6E6E6"/>
</svg>
