<svg width="21" height="21" viewBox="0 0 21 21" fill="none" xmlns="http://www.w3.org/2000/svg">
<path d="M17.625 6.75H14.625C14.4179 6.75 14.25 6.58211 14.25 6.375V3.375C14.25 3.16789 14.4179 3 14.625 3H17.625C17.8321 3 18 3.16789 18 3.375V6.375C18 6.58211 17.8321 6.75 17.625 6.75Z" fill="#E6E6E6"/>
<path d="M13.875 9.75H11.625C11.4179 9.75 11.25 9.58211 11.25 9.375V7.125C11.25 6.91789 11.4179 6.75 11.625 6.75H13.875C14.0821 6.75 14.25 6.91789 14.25 7.125V9.375C14.25 9.58211 14.0821 9.75 13.875 9.75Z" fill="#E6E6E6"/>
<path d="M20.625 3H18.375C18.1679 3 18 2.83211 18 2.625V0.375C18 0.167893 18.1679 0 18.375 0H20.625C20.8321 0 21 0.167893 21 0.375V2.625C21 2.83211 20.8321 3 20.625 3Z" fill="#E6E6E6"/>
<path d="M20.625 9.75H19.125C18.9179 9.75 18.75 9.58211 18.75 9.375V7.875C18.75 7.66789 18.9179 7.5 19.125 7.5H20.625C20.8321 7.5 21 7.66789 21 7.875V9.375C21 9.58211 20.8321 9.75 20.625 9.75Z" fill="#E6E6E6"/>
<path d="M13.125 2.25H11.625C11.4179 2.25 11.25 2.08211 11.25 1.875V0.375C11.25 0.167893 11.4179 0 11.625 0H13.125C13.3321 0 13.5 0.167893 13.5 0.375V1.875C13.5 2.08211 13.3321 2.25 13.125 2.25Z" fill="#E6E6E6"/>
<path d="M17.625 18H14.625C14.4179 18 14.25 17.8321 14.25 17.625V14.625C14.25 14.4179 14.4179 14.25 14.625 14.25H17.625C17.8321 14.25 18 14.4179 18 14.625V17.625C18 17.8321 17.8321 18 17.625 18Z" fill="#E6E6E6"/>
<path fill-rule="evenodd" clip-rule="evenodd" d="M11.25 19.5C11.25 20.3284 11.9216 21 12.75 21H19.5C20.3284 21 21 20.3284 21 19.5V12.75C21 11.9216 20.3284 11.25 19.5 11.25H12.75C11.9216 11.25 11.25 11.9216 11.25 12.75V19.5ZM19.5 19.5H12.75V12.75H19.5V19.5Z" fill="#E6E6E6"/>
<path d="M6.375 18H3.375C3.16789 18 3 17.8321 3 17.625V14.625C3 14.4179 3.16789 14.25 3.375 14.25H6.375C6.58211 14.25 6.75 14.4179 6.75 14.625V17.625C6.75 17.8321 6.58211 18 6.375 18Z" fill="#E6E6E6"/>
<path fill-rule="evenodd" clip-rule="evenodd" d="M0 19.5C0 20.3284 0.671573 21 1.5 21H8.25C9.07843 21 9.75 20.3284 9.75 19.5V12.75C9.75 11.9216 9.07843 11.25 8.25 11.25H1.5C0.671573 11.25 0 11.9216 0 12.75V19.5ZM8.25 19.5H1.5V12.75H8.25V19.5Z" fill="#E6E6E6"/>
<path d="M6.375 6.75H3.375C3.16789 6.75 3 6.58211 3 6.375V3.375C3 3.16789 3.16789 3 3.375 3H6.375C6.58211 3 6.75 3.16789 6.75 3.375V6.375C6.75 6.58211 6.58211 6.75 6.375 6.75Z" fill="#E6E6E6"/>
<path fill-rule="evenodd" clip-rule="evenodd" d="M0 8.25C0 9.07843 0.671573 9.75 1.5 9.75H8.25C9.07843 9.75 9.75 9.07843 9.75 8.25V1.5C9.75 0.671573 9.07843 0 8.25 0H1.5C0.671573 0 0 0.671573 0 1.5V8.25ZM8.25 8.25H1.5V1.5H8.25V8.25Z" fill="#E6E6E6"/>
</svg>
