<svg width="29" height="31" viewBox="0 0 29 31" fill="none" xmlns="http://www.w3.org/2000/svg">
<path fill-rule="evenodd" clip-rule="evenodd" d="M0.653377 9.50569C1.07173 9.09043 1.63913 8.85714 2.23077 8.85714H26.7692C27.3609 8.85714 27.9283 9.09043 28.3466 9.50569C28.765 9.92095 29 10.4842 29 11.0714V26.1044C29 28.8405 26.672 31 23.9808 31H5.01923C2.29514 31 0 28.7218 0 26.0179V11.0714C0 10.4842 0.235028 9.92095 0.653377 9.50569ZM26.7692 11.0714H2.23077L2.23077 26.0179C2.23077 27.4989 3.52716 28.7857 5.01923 28.7857H23.9808C25.5057 28.7857 26.7692 27.5532 26.7692 26.1044V11.0714Z" fill="white"/>
<path fill-rule="evenodd" clip-rule="evenodd" d="M14.5 2.21429C13.0209 2.21429 11.6024 2.79751 10.5565 3.83566C9.51064 4.87381 8.92308 6.28184 8.92308 7.75V9.96429C8.92308 10.5757 8.4237 11.0714 7.80769 11.0714C7.19168 11.0714 6.69231 10.5757 6.69231 9.96429V7.75C6.69231 5.69457 7.5149 3.72333 8.97913 2.26992C10.4434 0.816516 12.4293 0 14.5 0C16.5707 0 18.5566 0.816516 20.0209 2.26992C21.4851 3.72333 22.3077 5.69457 22.3077 7.75V9.96429C22.3077 10.5757 21.8083 11.0714 21.1923 11.0714C20.5763 11.0714 20.0769 10.5757 20.0769 9.96429V7.75C20.0769 6.28184 19.4894 4.87381 18.4435 3.83566C17.3976 2.79751 15.9791 2.21429 14.5 2.21429Z" fill="white"/>
</svg>
