<svg width="180" height="230" viewBox="0 0 180 230" fill="none" xmlns="http://www.w3.org/2000/svg">
<g clip-path="url(#clip0_1_8)">
<path d="M111.162 0C112.532 1.24397 113.7 2.35914 114.929 3.4052C119.619 7.40411 124.227 11.5035 129.058 15.3297C134.028 19.2658 139.17 22.9882 144.328 26.6761C149.15 30.1253 154.258 33.1316 159.41 36.0719C163.173 38.2174 166.252 41.1859 168.859 44.6445C171.215 47.767 173.081 51.1628 174.645 54.7408C175.999 57.835 177.058 61.0266 177.821 64.3061C178.704 68.0977 179.241 71.9395 179.508 75.8379C179.759 79.5133 179.624 83.1729 179.241 86.8043C178.936 89.6943 178.207 92.5498 177.51 95.3801C176.464 99.6209 174.651 103.548 172.217 107.179C171.761 107.857 171.253 108.498 170.631 109.064C170.8 107.914 171.036 106.767 171.124 105.608C171.359 102.432 171.686 99.2534 171.683 96.0775C171.683 93.6869 171.378 91.2681 170.923 88.9152C170.442 86.443 169.77 83.9834 168.922 81.6117C167.081 76.463 164.197 71.9112 160.528 67.8652C157.657 64.6956 154.412 61.9564 150.853 59.5815C147.589 57.4046 144.162 55.5135 140.534 54.0434C137.691 52.8905 134.76 51.9481 131.854 50.9586C130.572 50.522 129.247 50.2204 127.956 49.812C126.486 49.3471 126.175 49.545 126.171 51.0748C126.171 79.8242 126.165 108.574 126.178 137.323C126.178 140.15 126.256 142.99 125.609 145.754C125.091 147.982 124.459 150.203 123.652 152.339C122.188 156.209 119.961 159.648 117.206 162.733C113.675 166.688 109.456 169.679 104.562 171.73C99.335 173.923 93.8848 174.856 88.2556 174.419C84.954 174.161 81.7122 173.477 78.5771 172.295C72.3071 169.933 67.1176 166.138 62.9867 160.88C60.4988 157.71 58.6549 154.201 57.3606 150.378C55.8716 145.984 55.2811 141.479 55.5858 136.868C55.8465 132.941 56.7167 129.143 58.259 125.499C60.6465 119.842 64.2433 115.123 69.0526 111.329C72.5521 108.571 76.4442 106.576 80.7195 105.275C85.2964 103.881 89.9707 103.579 94.6796 104.009C99.2691 104.427 103.61 105.816 107.66 108.055C108.457 108.498 109.224 108.995 110.028 109.428C110.257 109.551 110.625 109.661 110.807 109.56C110.986 109.46 111.084 109.086 111.096 108.828C111.131 107.939 111.112 107.05 111.112 106.161C111.112 71.1322 111.112 36.1064 111.112 1.07748C111.112 0.797897 111.14 0.518319 111.165 0L111.162 0Z" fill="#FF9900"/>
<path d="M17.0448 137.848C17.2961 135.306 17.5066 131.088 18.1851 126.947C18.7694 123.388 19.8375 119.898 20.7893 116.405C21.8291 112.588 23.472 108.991 25.2783 105.492C29.2929 97.7204 34.542 90.8597 40.9723 84.9163C44.6068 81.5583 48.5147 78.5332 52.7806 76.0484C55.925 74.217 59.2109 72.5866 62.5532 71.1448C65.4841 69.8788 68.5438 68.8547 71.6191 67.9846C74.2955 67.2307 77.0693 66.8097 79.8117 66.3008C82.975 65.7134 86.1729 65.3961 89.3959 65.4276C90.6147 65.4401 90.6901 65.5061 90.6932 66.7155C90.6995 68.704 90.7027 70.6924 90.6901 72.6809C90.6838 73.6955 90.6021 73.7835 89.622 73.7678C85.9436 73.7081 82.3122 74.1824 78.7216 74.8641C75.062 75.5583 71.4746 76.5761 67.9752 77.8955C64.4223 79.2368 61.0171 80.8672 57.7596 82.7991C51.2507 86.6535 45.5587 91.4786 40.699 97.2837C37.3818 101.248 34.5703 105.545 32.2677 110.166C30.6248 113.462 29.2992 116.886 28.2248 120.413C27.2165 123.718 26.5065 127.089 26.051 130.497C25.4887 134.7 25.2311 138.935 25.5798 143.172C25.7872 145.67 25.9725 148.192 26.4971 150.63C27.2227 154.013 28.162 157.358 29.1861 160.663C30.4395 164.715 32.3085 168.516 34.4604 172.164C38.6069 179.188 43.8875 185.235 50.2549 190.33C53.6319 193.028 57.2413 195.378 61.0925 197.332C64.7679 199.198 68.5657 200.768 72.5521 201.874C75.4201 202.672 78.307 203.313 81.2504 203.778C87.1592 204.717 93.0744 204.783 98.9863 204.029C101.845 203.665 104.694 203.049 107.477 202.286C110.531 201.447 113.565 200.457 116.496 199.261C120.464 197.643 124.195 195.532 127.733 193.091C134.537 188.395 140.26 182.634 144.935 175.811C147.749 171.699 150.061 167.316 151.83 162.68C152.885 159.912 153.655 157.025 154.424 154.161C155.64 149.625 156.055 144.969 156.234 140.292C156.259 139.632 156.488 139.343 157.161 139.346C159.306 139.362 161.448 139.359 163.594 139.337C164.332 139.33 164.624 139.629 164.577 140.376C164.323 144.366 164.172 148.368 163.321 152.288C162.686 155.216 162.052 158.15 161.219 161.024C160.148 164.709 158.675 168.256 156.969 171.699C154.393 176.888 151.267 181.719 147.57 186.183C143.361 191.263 138.551 195.698 133.17 199.496C129.178 202.314 124.943 204.752 120.438 206.652C117.68 207.814 114.85 208.845 111.979 209.684C108.86 210.598 105.69 211.433 102.483 211.923C96.7403 212.8 90.9508 213.28 85.1362 212.57C82.3122 212.225 79.4661 211.999 76.6766 211.471C72.9133 210.758 69.2348 209.687 65.6223 208.374C61.5103 206.881 57.568 205.044 53.8046 202.845C49.4005 200.275 45.3042 197.263 41.5064 193.845C36.5242 189.359 32.2583 184.264 28.6395 178.638C25.9379 174.438 23.7296 169.971 21.9422 165.306C20.5034 161.546 19.3788 157.688 18.5935 153.743C17.6574 149.047 17.2113 144.284 17.048 137.832L17.0448 137.848Z" fill="#FF9900"/>
<path d="M166.87 171.469C168.523 172.164 170.128 172.836 171.733 173.508C172.286 173.741 172.839 173.973 173.392 174.205C174.3 174.586 174.435 174.818 174.023 175.685C172.939 177.972 171.884 180.278 170.684 182.505C169.531 184.638 168.249 186.702 166.952 188.75C164.558 192.529 161.819 196.053 158.86 199.405C153.397 205.59 147.196 210.915 140.273 215.401C136.019 218.156 131.609 220.634 126.894 222.488C123.065 223.995 119.195 225.447 115.249 226.6C111.982 227.555 108.586 228.079 105.234 228.717C100.29 229.659 95.2796 229.98 90.2597 229.914C85.6891 229.851 81.1153 229.609 76.6044 228.745C73.8903 228.227 71.1385 227.828 68.4746 227.112C65.1825 226.226 61.9187 225.189 58.724 223.992C55.7523 222.88 52.8434 221.57 49.9879 220.182C45.0246 217.769 40.3943 214.804 35.9996 211.458C30.3012 207.12 25.162 202.204 20.6385 196.653C16.9003 192.067 13.5171 187.232 10.8439 181.942C9.2355 178.76 7.63971 175.556 6.32349 172.248C5.10151 169.179 4.18111 165.985 3.2607 162.806C2.55704 160.38 1.89736 157.921 1.50155 155.43C0.320414 148.032 -0.458635 140.6 0.307849 133.092C0.530883 130.909 0.606275 128.703 0.94868 126.542C1.41988 123.555 2.03244 120.586 2.67955 117.63C3.08478 115.77 3.58739 113.923 4.18739 112.117C5.05754 109.497 5.93711 106.868 7.02715 104.333C8.37478 101.198 9.80722 98.0879 11.4407 95.0942C14.5412 89.4179 18.1694 84.0682 22.5767 79.3248C25.6301 76.039 28.9505 73.0044 32.1483 69.8537C32.6038 69.4045 32.9462 69.4453 33.3577 69.9542C34.7431 71.6568 36.1598 73.3343 37.5828 75.0023C38.0195 75.5144 37.9441 75.8536 37.4603 76.3154C34.9378 78.7028 32.3431 81.0274 29.9745 83.5656C25.5578 88.2964 21.8322 93.5518 18.6909 99.2219C16.5328 103.114 14.6763 107.138 13.1967 111.329C11.9308 114.922 10.8973 118.582 10.1276 122.32C8.75802 128.958 8.08263 135.655 8.45017 142.418C8.64493 146.037 9.13184 149.647 9.66272 153.237C10.0428 155.813 10.6083 158.373 11.2868 160.886C11.959 163.374 12.8198 165.818 13.6962 168.246C15.1695 172.33 17.0794 176.219 19.2343 179.982C23.2175 186.937 28.1086 193.201 33.9043 198.73C38.6258 203.228 43.7901 207.148 49.4539 210.422C53.0539 212.501 56.7449 214.402 60.6276 215.863C63.7658 217.044 66.9919 218.021 70.2275 218.916C72.8097 219.632 75.439 220.248 78.0871 220.628C83.9928 221.476 89.9299 222.013 95.9079 221.445C98.223 221.225 100.548 221.074 102.847 220.744C104.983 220.436 107.097 219.949 109.211 219.497C110.587 219.202 111.96 218.881 113.308 218.479C115.529 217.816 117.771 217.191 119.923 216.346C122.663 215.269 125.348 214.041 128.006 212.775C132.237 210.761 136.177 208.248 139.94 205.465C145.195 201.579 149.923 197.134 154.114 192.117C157.657 187.873 160.776 183.337 163.377 178.462C164.433 176.486 165.347 174.435 166.333 172.418C166.481 172.116 166.663 171.834 166.864 171.479L166.87 171.469Z" fill="#FF9900"/>
<path d="M34.1682 139.098C34.3064 135.168 34.7117 131.282 35.497 127.428C36.7567 121.252 39.0498 115.494 42.2477 110.085C46.1964 103.406 51.3701 97.8241 57.6276 93.2629C61.2653 90.6116 65.1762 88.4221 69.3762 86.7697C70.2715 86.4179 71.1856 86.1069 72.0809 85.7582C72.5709 85.5666 72.8317 85.6577 73.0076 86.2011C73.7144 88.353 74.4714 90.4922 75.1971 92.6377C75.3887 93.1969 75.128 93.5236 74.5971 93.7089C68.839 95.7225 63.6747 98.7665 59.0884 102.781C54.0497 107.188 50.0979 112.419 47.2236 118.478C45.9231 121.224 44.8581 124.054 44.1231 126.988C43.6016 129.055 43.2152 131.176 43.0048 133.296C42.7409 135.941 42.5556 138.617 42.6341 141.269C42.744 144.84 43.3597 148.359 44.2958 151.833C45.7346 157.161 48.0372 162.064 51.1596 166.588C54.5334 171.476 58.6863 175.591 63.5867 178.958C66.6118 181.035 69.8128 182.791 73.2306 184.088C75.5081 184.955 77.8892 185.577 80.2546 186.19C84.4828 187.289 88.8022 187.663 93.1529 187.399C95.9078 187.233 98.6722 187.009 101.349 186.218C103.695 185.524 106.098 184.996 108.382 184.138C111.677 182.901 114.812 181.283 117.715 179.266C119.066 178.33 120.369 177.325 121.654 176.298C122.21 175.855 122.549 175.88 123.011 176.426C124.406 178.085 125.835 179.715 127.277 181.333C127.708 181.814 127.689 182.159 127.199 182.574C123.869 185.382 120.297 187.842 116.352 189.673C113.383 191.052 110.333 192.306 107.226 193.327C104.814 194.118 102.275 194.611 99.7528 194.976C96.7874 195.403 93.7843 195.742 90.7906 195.771C87.0367 195.805 83.3017 195.356 79.5949 194.618C75.2945 193.763 71.1762 192.397 67.2055 190.597C63.5396 188.935 60.1124 186.843 56.8863 184.415C51.9356 180.689 47.6571 176.316 44.2362 171.161C42.5084 168.56 40.9001 165.853 39.5462 163.047C37.9849 159.812 36.8195 156.407 35.9525 152.895C34.831 148.352 34.3316 143.75 34.1682 139.098Z" fill="#FF9900"/>
</g>
<defs>
<clipPath id="clip0_1_8">
<rect width="179.63" height="229.92" fill="white"/>
</clipPath>
</defs>
</svg>
